<mxfile host="65bd71144e">
    <diagram id="nwloHONCTy_PLzzEn6iU" name="Page-1">
        <mxGraphModel dx="810" dy="762" grid="1" gridSize="10" guides="1" tooltips="1" connect="1" arrows="1" fold="1" page="1" pageScale="1" pageWidth="850" pageHeight="1100" math="0" shadow="0">
            <root>
                <mxCell id="0"/>
                <mxCell id="1" parent="0"/>
                <mxCell id="33" value="" style="whiteSpace=wrap;html=1;aspect=fixed;" vertex="1" parent="1">
                    <mxGeometry x="100" y="90" width="500" height="500" as="geometry"/>
                </mxCell>
                <mxCell id="11" value="&lt;font color=&quot;#007fff&quot;&gt;Hilos&lt;/font&gt;" style="rounded=1;whiteSpace=wrap;html=1;fontColor=#000000;fillColor=#4D4D4D;" vertex="1" parent="1">
                    <mxGeometry x="199" y="340" width="331" height="110" as="geometry"/>
                </mxCell>
                <mxCell id="6" value="" style="verticalLabelPosition=bottom;html=1;verticalAlign=top;align=center;strokeColor=none;fillColor=#4D4D4D;shape=mxgraph.azure.server;" vertex="1" parent="1">
                    <mxGeometry x="230" y="460" width="250" height="90" as="geometry"/>
                </mxCell>
                <mxCell id="2" value="cpu 1" style="pointerEvents=1;shadow=0;dashed=0;html=1;strokeColor=#001DBC;fillColor=#0050ef;labelPosition=center;verticalLabelPosition=bottom;verticalAlign=top;align=center;outlineConnect=0;shape=mxgraph.veeam.cpu;fontColor=#ffffff;" vertex="1" parent="1">
                    <mxGeometry x="250" y="470" width="74.8" height="54.8" as="geometry"/>
                </mxCell>
                <mxCell id="3" value="cpu 2" style="pointerEvents=1;shadow=0;dashed=0;html=1;strokeColor=#001DBC;fillColor=#0050ef;labelPosition=center;verticalLabelPosition=bottom;verticalAlign=top;align=center;outlineConnect=0;shape=mxgraph.veeam.cpu;fontColor=#ffffff;" vertex="1" parent="1">
                    <mxGeometry x="355" y="470" width="70" height="54.8" as="geometry"/>
                </mxCell>
                <mxCell id="7" value="hilo" style="rounded=0;whiteSpace=wrap;html=1;fillColor=#fff2cc;strokeColor=#d6b656;" vertex="1" parent="1">
                    <mxGeometry x="230" y="370" width="42.6" height="50" as="geometry"/>
                </mxCell>
                <mxCell id="8" value="hilo" style="rounded=0;whiteSpace=wrap;html=1;fillColor=#fff2cc;strokeColor=#d6b656;" vertex="1" parent="1">
                    <mxGeometry x="300" y="370" width="42.6" height="50" as="geometry"/>
                </mxCell>
                <mxCell id="9" value="hilo" style="rounded=0;whiteSpace=wrap;html=1;fillColor=#fff2cc;strokeColor=#d6b656;" vertex="1" parent="1">
                    <mxGeometry x="390" y="370" width="42.6" height="50" as="geometry"/>
                </mxCell>
                <mxCell id="10" value="hilo" style="rounded=0;whiteSpace=wrap;html=1;fillColor=#ffe6cc;strokeColor=#d79b00;" vertex="1" parent="1">
                    <mxGeometry x="450" y="370" width="42.6" height="50" as="geometry"/>
                </mxCell>
                <mxCell id="13" value="" style="sketch=0;aspect=fixed;html=1;points=[];align=center;image;fontSize=12;image=img/lib/mscae/VirtualMachineWindows.svg;fontColor=#007FFF;fillColor=#4D4D4D;" vertex="1" parent="1">
                    <mxGeometry x="140" y="350" width="50" height="46" as="geometry"/>
                </mxCell>
                <mxCell id="14" value="" style="sketch=0;aspect=fixed;html=1;points=[];align=center;image;fontSize=12;image=img/lib/mscae/VM_Linux_Non_Azure.svg;fontColor=#007FFF;fillColor=#4D4D4D;" vertex="1" parent="1">
                    <mxGeometry x="140" y="404" width="50" height="46" as="geometry"/>
                </mxCell>
                <mxCell id="16" value="" style="rounded=0;whiteSpace=wrap;html=1;fillColor=#dae8fc;strokeColor=#6c8ebf;" vertex="1" parent="1">
                    <mxGeometry x="205" y="150" width="315" height="180" as="geometry"/>
                </mxCell>
                <mxCell id="19" value="" style="shape=image;verticalLabelPosition=bottom;labelBackgroundColor=default;verticalAlign=top;aspect=fixed;imageAspect=0;image=data:image/png,iVBORw0KGgoAAAANSUhEUgAAASQAAAIICAYAAADHf5M8AAAAAXNSR0IArs4c6QAAIABJREFUeF7sXQV4FFcXPW82LiQkITiE4O4Q3CG4tHhxtwIFWihuxVsoLVCDAi1WWmhxdylQpJQixaEU1wSiOz/3keVHIrs7k2STvff7+Ahk5s6bc9+efe++KwIsjAAjwAjYCALCRsbBw2AEGAFGAExIPAkYAUbAZhBgQrIZU/BAGAFGgAmJ5wAjwAjYDAJMSDZjCh4II8AIMCHxHGAEGAGbQYAJyWZMwQNhBBgBJiSeA4wAI2AzCDAh2YwpeCCMACPAhMRzgBFgBGwGASYkmzEFD4QRYASYkHgOMAKMgM0gwIRkM6bggTACjAATEs8BRoARsBkEmJBsxhQ8EEaAEWBC4jnACDACNoMAE5LNmIIHwggwAkxIPAcYAUbAZhBgQrIZU/BAGAFGgAmJ5wAjwAjYDAJMSDZjCh4II8AIMCHxHGAEGAGbQYAJyWZMwQNhBBgBJiSeA4wAI2AzCDAh2YwpeCCMACPAhMRzgBFgBGwGASYkmzEFD4QRYASYkHgOMAKMgM0gwIRkM6bggTACjAATEs8BRoARsBkEmJBsxhQ8EEaAEWBC4jnACDACNoMAE5LNmIIHwggwAkxIPAcYAUbAZhBgQrIZU/BAGAFGgAmJ5wAjwAjYDAJMSDZjCh4II8AIMCHxHGAEGAGbQYAJyWZMwQNhBBgBJiSeA4wAI2AzCDAh2YwpeCCMACPAhMRzgBFgBGwGASYkmzEFD4QRYASYkHgOMAKMgM0gwIRkM6bggTACjAATEs8BRoARsBkEmJBsxhQ8EEaAEWBC4jnACDACNoMAE5LNmIIHwggwAkxIPAcYAUbAZhBgQrIZU/BAGAFGgAmJ5wAjwAjYDAJMSDZjCh4II8AIMCHxHGAEGAGbQYAJyWZMwQNhBBgBJiSeA4wAI2AzCDAh2YwpeCCMACPAhMRzgBFgBGwGASYkmzEFD4QRYASYkHgOMAKMgM0gwIRkM6bggTACjAATEs8BRoARsBkEmJBsxhQ8EEaAEWBC4jnACDACNoMAE5LNmIIHwggwAkxIPAcYAUbAZhBgQrIZU/BAGAFGgAmJ5wAjwAjYDAJMSDZjCh4II8AIMCHxHGAEGAGbQYAJyWZMwQNhBBgBJiSeA4wAI2AzCDAh2YwpeCCMACPAhMRzgBFgBGwGASYkmzEFD4QRYASYkHgOMAKMgM0gwIRkM6bggTACjAATEs8BRoARsBkEmJBsxhQ8EEaAEWBC4jnACDACNoMAE5LNmIIHwggwAkxIPAcYAUbAZhBgQrIZU/BAGAFGgAmJ5wAjwAjYDAJMSDZjCh4II8AIMCHxHGAEGAGbQYAJyWZMwQNJBAS8HB0dA41GYy5VVXMCoD9eVjwnAsATAI8BPAJwTwhBf+5ERUXdAnATwEMr9PItbyDAhMRTIiUj4AygoqIolVRVrQggAIDyygsZADgBcIn5m66n/7NUVADRAIwxf0cBePVPZMz/v6n3mRDiFIBDRqPxdwD0h8iNJQ4EmJB4atgaAo4AiDiISEySS1GUhqqq1gdQ9A3SgRACwuAAg4MDFAcHCOVVTgIMjk5In78QMhQsggwFi8q/Xb28zX5vozEaEU+eIPTeHYTcuY1H/13H43+v4cHVK7h/+QJC7tAi6XUxRkfDGBX14k80cRlx2mtC/3FMCLHaaDSuAXA15rdEeuExf+hnuxImJLsyt829rCeArAAyxZCMQVGUEqqqBgMo9+ZqxsnNHW6+fnDz8YWjiysgXkxfZ3cP+Abmhn++QvDPmx9pMmQEkHxTW1VVPLxyCbfO/IWbp0/iwdXLiI6kRRRgjIzE0/v3EHL3NsKf0C7wLaKireBao9G4BcCdmAuuA7gEIMzmLKjzgJLPajq/CKtLEQgQU9DWKlcMY2QQQgQBKPEq+dCKxy9XXqTLnQ8e6dK/WPEIwN03Hfxy5pHk45rWR66MUppEPnuGexfP4daZv/Hk1n+AqiIqPAz3Ll/EzVMnEPboLVcUMdYhVVV3x/ip7gPYC+CvlPbu5ow35VnUnLfia2wFAVeDwdBWVdWqqqq6AkgLIB8AIqaXkqFAEQRWrg7fHDkl+RDReKbPjDSZMsEljXeKJB5LDECrp5DbN/Hw+hVEPH0KNToady+cw9kt6+TqSjW+tnMLAXCGtnhCiFCj0fjL89XkJgDPLHmmrV7LhGSrlkm54yolhBgHIH/MqoecNe4mv4+Dswvy1KiLwk2aI03GzPItHVxc4eTuDgcnch2x0DYuKjwC4SGPX2z1VBX/bN+EYysW49G/114FiJiKTv2IpMIURRkcHR39W0pGkAkpJVsvecdOp1Ue5Hw2GAxljUbjZzFbMenbIR+Pg4sLFIMB2UqXR7nu7yNt1uzJO+JU8vQHVy5h31czcfXwAbl6om1gdAT5wV/KHlVVhwC4GENYKeZkjwkplUzSJHwN8v/kBkD+n/cBFKNnC8UA38Bc8PBPD1oF5Q9uKFdCLImLADnI/163CtePHUZ0ZATu/HMGoXfJFy7FKIQYFRNycO6Vk7zEHZQG7UxIGsCzo1tp20VH7jmEENUAVKd3p+P0zMVKymN0B2dXBFaqCv+8BVO9z8dW7U7hBf9s34i758/h8c0bOL9zCyJCaTcnT+e2qqpKcVDrARy11XdgQrJVy9jAuJycnApHRkaSP4h8QLQSSkfD8suVByVbd5JH8Gmz5YB3lmxvxf7YwPDtegjPHj3ErdMnERESgj9XLceV3+lgTspxIcRZo9G4IMYZblM4MSHZlDlsYjA0J+oKIcbHxAhJEnL28ERQlz7IXSMYTq5ucPHykts0FhtHQFURFvIE4Y8fYe+cT3Fu63oK1KRQAnKG/6Wqaj8iKVt5CyYkW7FE8o6DjrfSAKgqhFhBQ1EcHCUJObm5ocHk2chQoHDyjpCfrhsCWyePwrmtGxAeGiIDNZ9vxw+rqtow5rQuVLcHWaGICckK0FLRLW4AiiuKUjvmmzItRUO/SLMoijIde8AljTW5qKkIoVT6KhQpfnz5Ylw6sBt3/zlDq6ZwIcQSo9E4Lybo8mlyvDoTUnKgbhvPfE9RlJKqqjYHkJmIqHir9jIyOm/tBhbletnG6/AorEHg3sV/cH7nVhmESSd0AC4IIdYYjcbpAP61RqeWe5iQtKCXMu9tqCgKRU/TSVk6Fy9vFG/xHjIVLYnsZSqwczpl2lTzqG+f/RsX92zHkcXfyq0cgD1CiANGo/EjzcotUMCEZAFYKfzSjEIIWo5XifEXiSJNW6F8zwFw8UwDg9OryfUp/E15+FYhQHFMFMO0bsRA3DghIwMooHKbqqqDAfxtldLXb6LT2kqKolRXVZWqNlBStQM52IUQ56k8CxOSDijbsAqyr6+iKO1UVf2UIqjJUU3+oXdmz+d4IRs2XHIPjUIF9s39FE/vUy6vGhWztbckZ44OSTwMBkNVo9E4BUCWV9/pRZkYgyzYQNHmFENFfzMhJbflE+/5dFxfVggxjRJayUeUrUx5FG/RTv7NwggkhACtljaOGYJbp/8CxTWpqkp+pZ+o+kA89xakypxCiE7Pwwma0HUGJ2f45cwNDz9/eZswKPDwzwC3tL6yfhUFbz65+R8inoYwISVklBT6+/yKogxTVZUmhGdgpWrIUaEqCjduLqOrWWwXgajwcDy4egmP//sXoffuIiLkiUwJoSoIjjL+yxue/hnglSWb/Dux5dmjB7i4Zwf2fzVLjgnAOVVVP35eKG9VTAVN0xCoWmcjIUQb+UWoKPDPV1D6JalUTI6gSvDNSRlH8QuvkBJCKIX9XlGUaaqqUnpHSdqele/RH7mq1nqZWZ/CXifVD/fK7/tkuoesjUR1cKOiZAG3sMcPEREaKmsl0XaGSrLQl4mjqyucPdPA1dsHLp5U3w5w8/FDnpr1kKN85UTD67+Tx7Bl0ijcOXeanvHv83IytA2bD4DilqoLISYCoGA194wFi6Bc9/7wzJARPtkD5SrIXGFCMhcp66/zVhSlk6qqrZ4bMFscpQwpcvZ3VVUXAtgcY2RLn+ghhPjh+XK6HgBHyrCvMXQsvLNkhWIwf0JY+lC+3jIEIsOe4a/fVuLY8kWyYiQRTlTYs5gyt//X5eXlhZIlS6JQoULInDkznJycEBISgmvXruHPP//EwYMHX15sWj1RUjNV06zY+wPkrFzDsoGZcXXYk8c48dOP2DtnBl1N9Zc2AKA8x1J0UEIrocbT5sgiekSa1ggTkjWoxX0P7Yf86JtCCDHZlAlP3xD0zUZ7aYPBAapqBC3N6ZuP6t28UTpCahdCfG80GsfGkNODmKLysT2Z8jeqCSFolhRx9U6LwErVETyavsCSTqhsa8y4k+6hKeBJxugohD1+JMlnzdB+coXh4OAAIhwXFxdJNBUqVEDz5s1RrVo1eHhQRRfz5enTp1i1ahWmTJmCBw8e4PHjx3giS+MCpd7rgpJtOsHJ3UP+0UPIzmc3r8WWiSMQ8fRFULfB0RGFm7REpX5DQL5KLcKEpAW9/99La2c6Ti8khBhBy1ZKOKVvCvr2okJkWUsFwT9vAXimz4jIp6G4+fdJWTSeattQQBoZmsjp8Y3rskogTeQYOaWq6pyYDO3/fy2++CUtfToIIb4UQjhnKloC1QePknt3vcVU1fDRjeumDPKXj6DTkShZj0fAwcnptVgm2mrQt6VX5qzSkZkSy85agyVhQkGH148dwdGlC6RNs2bNiuLFiyNLlixo3749SpUqBeWNhgTWPMt0j9FoxPLly/HTTz/hn3/+wZkzZ2TF7ry16qNQo3flvNAr8p5WefvnzcST2zdlcnXDKV/I+a1VmJC0IUirEypI30AI0cXBydkxoFylF90tChRB9rIVXhaiN+cxtGqiwvAUA0JL+3+2bsDdi/+Ybj3/vLfY4ue+IepQcSymDGxPqndD337kJ6rQc4CuviI6ZTm/a6ssr0rjuXfpPG79/ReePaSjYPOECMjdLx3SFygCv8DcsmCbV5bsyFGhCtzS+pinJIVdFXL7lqzuSAXUqE52xYoVUaNGDUlGDRo00JWE4oLmwIED2LNnD5YuXYoTJ07A1SstclaujuKtO8I/DxXz1C7k+9r/9WzcPX9WklHNoeOQoVBRTV86TEjW28VHUZQpqqrWApA9b826KNy0FXwCAuUqSKvQNyytnOjEhaJnaUUV0/vrbyHEDlVVqVtHA2fPNI7VPhj+4gPuQ7tFbRL57Cn+Xr9anqyQz4C+5cOfUH/E/wuRTIYMGVC0aFHkypULmTJlklsNg8EA2kLcuXMHV65cwalTp+S3dFTUy9WeJGjaVvoG5JSnRgXqN0G+OpTXmfKFVrlHFn+D87u24caJP5AnTx4MGzYMZcuWlT/ruRoyFy0io23btmH8+PF49OiRbJ6QuWhJ1BxGVWW0y+1zp7H3i+m4tH8XfHPkkonYdMRvrTAhWYecz/PjTarA5+3pn8EQPGYqMhYuJj9gegtNcorToFXKwlb1TQXf6RNOzceUnhv3w5XiOQzaSoHQcv+3Ib3lB4lKopKz1SRp0qRBmzZt0KtXL0lEJEQ+jo6O8g/9bNqK0XhJF5FQZGSk/NvkX/r5558xdepUXL58+aVu8q2R34G2FRX7DEoUDPW2SWz6qCDarpmf4MLu7YiOiMCMGTPQqVMneHp6SnySU8gO//33H7p06SLJieZK7up1UHfcDOn/0SoUDrBr5iSc27ZRbs+7r91ttc+KCckya5BnsJUQ4nMHZ2fXfMGNUH3IqBc9wpJAKN9oaefmiI6IhIe/P9otWSOX4tYKfXDog0QRuVSOgoiDPjy+vr5wc3PD+++/jwEDBlirPt77tm/fjuHDh+PmzZu4ffs2nj170TSj2uCRyFWlljwyTgn+JjqYeHDlIha1aQQXJ0fkzJkTGzZskKtGW5R27drJ8d2/fx85q9RA5X4fIm32QM1Yk29x56cTZT4cSZfV261yHzAhmT9r0imK8rGqql19AgI98gc3QlDXvubfrfHKywf2YNXA7lJLxkJFUXPoWLn8tlauHNqHm3/9iX3zPnsRsi+E9HPkyJEDPXv2lP6OpJJJkyZh165dOHbsmNzu0UFAw8mzpV+CnOG2KnQocXn/bmwc+xHSpUuHQYMGoWvXrvDxsW3fGBHSmDFjcPjwYZlUXbnfEGQuRif32oSIeceMiXL7ljZ7DjT4ZJbFjm4mJPNs4KEoygxVVdvnqFDFpXT7bshakvobJo2c3vgbtk0ZjcinTxFQvgoq9hqIdFY6JumbjFZDhxd9jWcPH0giIkdrUFAQunXrBj8/7X4oa1ChI2v6oKxbt046YqklUtZSZWVgJznEbW21dO/SBfzx43c4s3ENPN1c8fnnn6N169Y2N87YbEEr4dOnT8sVMK1U6TS4+pDREm+tQocwWyZ8jBt/HpNF/WoNn2gRKTEhmWEBRVHmqKraOVeVms4Ua6HHEteMx8pLzm5Zjx3Tx8k0AjpJqzrwY6tXDRQVTNszcpbTiV62bNkwefJkGQdDR9G28KG/deuWPBWilcb169elo7Rsl96gFamtyMPrV7HlkxH49/gRZM+SBd9//708SUtpcuHCBbRt2xaHDh1C+nyFUHf8dIm3VqGDkF8H9cKDa5eRqUhxNJzyJTzSvchjS0iYkBJCCHhPCLEgY6FiDnXHTkPabAEWHeUnrD7uK2jCrxrQXTYMzFGxKhpOmi0DLK0RKsC1afwwucoi6d27NyZMmAByWCfH6U9C70BO2GnTpmHmzJmykWTemsEIHkN5wskrFB+2qE1D3L94AQULFpBxP/nz63OMnhxvRkGUdFJ69+7dF47usdNlPz2tcu2PQ1g9qAciQ0NkWkuDSbPMUsmEFD9M2YQQh13SePkHj52GnJVk958kEQqkW9LpXRnhm7V0EBp+MksmVloqtC3b+dknsncXRQj7+/vLbREd2acEIcf37NmzERIaipwVq6HuuOlWpyVofV867VzR4z3cPnsKefPmxddff50iV0Zv4kApKeQ7vHfvHsgdQdtkSkPRKjTntk0ZIyO6642bjjSZsuD3+XNlfBYlDJNQhVJ6XmDFqjJshQkpbtSzCyF+BFCBjFT5/aQrnEdktHpg9xdL3sLFUfPj8XKfb6ncv3wBO6ZPkC1w6NSsWbNm0vFapEgRS1Ul6/XTp0/HrFmz8N/NmzI8oPKAoS9LWSTVwCjfbPcX03Fs2UJ5gkYrt3fffTepHp/oz1m9erXcvoWFhaPu+BnIV6c+hKDIEm1y5IfvZKUAim+LT8gJXq5rXyakeEDq/zwdY1Kxd9u6UpJqUgmtaMg/Qb3cfQJyos6oyXIfbqncv3xRHsMSGdHRNMXFULoCHemnRFm5ciU+/vhjXLp6DcWat0X57v3h5K4tb8oSHP5asxK7PpsktyCLFi2SDuzUJLRK+uijjzB37lwZbd18zmLZcUarkK+SupycWvNzgqooJopXSLHDVII6MDi6uOTtsHyD1U7kBC3wxgVqdDT2zv0MfyxZAMXBgFbfLLPohMKkjpI5t00dg3NbN8IYFSlzmxo1aiSDGFOq0MkQBVbSydCDkFCZPJyrWu0keR06xqYvCSoitmDBAnTo0CFJnpvUD7lx44bE95dffpEHKI2nz9VlCJTvtrhNQ3mqm5AwIb2NEGHyjhDip3rjZiBfcMMkK3x/fMUP2PnZRJlk23XNLnhlzJyQ/WL9/Ymfl2Db1LEggiOn6zvvvGOTjmtLXy46OhpffPEFhg4dimgh0GfbEV18HfGN41UfXJkyZbB///5UgWVc70xVA8aOHYvw8HD03XVCl1USPSv07m3MC064UikT0tuWobSQG95ZsjvXGz9DpoRYI5R6EXLntgw6jHwWKvfjDq5ucklKybCUz0UBgCa5emg/fh3SW6Zs1PhwNIo0s25LcOfcGSxq00CWtRgyZIj88Lon4dbGGqwsvYeix2lroTi7oNva3bJOeGLJxb07sWrAi2BHSlZNySdq5mLUsGFDrF+/XrZJ77hyky7hILTCPb9zC9Z93F9+4cYlTEhvI9OcureW7dxbBiDKKuQWCtW8+WfHZhz87ktT7tlrGrKWKIsCDZrCJ3sOpM9fWPp4fh3cExQnREvl2iMnWdUXjZ67tGsrRD17Kk9/5s2blyo/QLRSCg4Oxo5du2TNn4p9BuvyoXnTzLTC/KpuBYQ9eiDrDfXr1y9Fb3vNncbLli1D586dYXD3RKPpc+TBih7y5OYNbJ08Ghf37mBCMhdQIcRdr0xZfGsOGw8qJWKp3D5zSvobbp7+C4gpWhaXDjpZkCVKVOD4Tz/I8P1aH0+Ab6DlwWn0rbNh9GCc27IBfn6++OGHH1CrFhUiSJ1C5TWIdD0zZkatj8cjIMhyWyWEDNX7OfDtFyhfvrwkd6reaC9SsGBBWamhQINmuhb7o9I6mycOl1UkYhPLv/5Tt0WchBDhRBJNZ30Lg4NlTuAnt25i9cBuoJIMloq7n79M1M1TvY5Vq7ITPy/FntlTER7yBPPnz0fHjh0tHUKKu37JkiV4r107WRWxUt8humSum0CgrfasioUgjEbp6KUgTVuIZE8qI1FeIZXQpSL9wWOnynghPYRw3T1rCo6tWBTr1o0J6RWUFUVZQf2nAitWQ9OZ31iMP8VbHPhmtsX30Q30DU8kaE0ZkWcP7mPHjAmgnDdvb2+ZoJrcJS+sAsHCmx4+fIjAwECEPHsm6/DoGbhKAX20aqWYrb1791pcWtbCV7HJy6nEbmR0NKoNHC7brOslFBQ5v1ktUxeT19QyIb0ChxDigpOHR2Dr71ZYHIhIR+1fVi9plc08M2RC9zW7rFoZ0bbwzOZ1WDd8gPRvUC4YkZK9yJYtW6Q/qeqgESj2bluLOlzEhRGVZVnapYXsR1a/fn2sWUNFOu1PKPjzgw8+kEHBpdp11XWFeO3oIazoTh2TXhcmpNcJ6aKLl3eO3pt/h7CwqNb6kYNwesOvFs9a2ga8M3sBsgdZl5xJ1Rw3T/hYFseiQvELFy6UxePtRf766y9QjZ9zl6+g/bJ1umwtCMvtU8fIhOa///4b+fLlMxtOOi6neB4qtk9VNDNmzCij5FOiUF1uSpHJXa02qn80Rvfo+NUf9MCF3dt4hRTH5MghhNjj6uWdufe2IxbPn88rF3mZuGrJzSXadES1D6gvgHVCaSbzm9WEs7OzLN9RtWpV6xSl0LuoIuXEiRNl7EzLb5YiS/HSmt9k+9SxsiY2lWKh4nHmCDmAKYKbtpGXLl2SHUAocTkgIEBWjaSKm+STSUlClT3LlSuHew8fofncxVZlDMT3vlQF9btmNREV9v/qpLxC+j9iA4UQ4129vN0tJSRyJH9Vt7ws/WqJeKbPgHfnLJLN9KyVDaMGyxrY5MQmx2tKTQ2x9v3pvsWLF8uthcEvPdr9+JsWVbJl0dZJo0DVEb766itZIyohocjt48ePy9UUhSTEJrTKolM6OlK3xeoKsY2ZqnhSuMO4ceNk1kDm4tqLuL36HGNUFI4uWyjL35qECSkGCUVRvlBVtUemoiUdWn+3PKE5+Nrvqavnip7vyRpDlggVryrcpIWmvfmnZfLIWCdaJVBBeXsUqhlN29XffvsNg46c1wTB5QO7sWn8x7KGOW2/4ku3odrh1MqIGjfSzwkJbc9r164t009MtckTuie5f0/F8ijplqos5K/bWNNcje1drh87jF8H90LYo4fy10xI/yek+aqqdijRuqNSbZBlWyiqS73g3TqyA6m5kqVEGRlzRF1KrBWK5fi+RV1ZOmLOnDmoU6dOvKrCwsJksXdKJ6GyHqbi+6ab6GSOCrZRqgl9YFKSL6ply5agBNzOq7bLbr3WCiWBUklaV1dX2XAxrtUM1aSm4EEiQUuFkpxpNUtlb21daK4QIfnnL4xW3y7TNbTC9O4UQLxv7mfyQIIJ6f+EtEhV1ffK9+gvynXrZ/E8scSHRF02qAZMybadLX7OqzfQNwuF4zdp0kQmnsYXJ0O+DcoD++6772SLoviEjtKpQ0WfPn2kHyQlCG0riEzz1m+mqcUPNUDcNG4oWrVqhR9//DFWTKnV0yeffAKqBf4mqZuLFa1mR40aJX1/tix0iknuAPoi67/vr0TJHaSSytunUVXUO0xIpsmgKMpCIqSSbTopVT8YbvEcoWX+X7+uMOs+Ks7ffM5CzX3U5tYOwrMH92QpDIrMjkvoQ0N+jviuefNeIjc6vaLyrClB6ESocuXKCDUCPTbss2rItOWmvmr75s2UGe9E9LEJnezR7y5evGjVc+gm2gqeP39edrO1ZaF3pPZXREyJRUhUK+m3D/uAGlnwCun/K6SvqW525uKlDOTAs1Som+vX9Su/1s8sNh3SjzDyExRq1NzSR7x2PQWXfV2/EkR4mCxF279//zj11axZUxZzt0ZoG0ind7YuRLq0db0b8hS9Nr/Zcdy80T+9fw9bJg6X3XoPHjwIyu5/U8hXRL3lqDaTViEC3blzp1Y1iXo/nWIOHDgQX375ZaIREr0AfQkcXvg1E5LJmoqifKqqal9X77SOvbcetsrIlNxK9ZbjE8rwH3jwjOaSJrdOn8RPvTsgnVca2SGWjpZjE8r4/+yzz8xyusZ2P/mVaELSh9DWhY7YtRDSo3+v4ed+nWW34LgIiRzoVD3htW68GoAxxxmuQb0ut1KVUZpDfXceh7MHtSbUXygX85uGVZiQXoG2pBBinYuXd/reWw9ZXb6TGuVtGjcMtGKKzb/QYNLnyFurnmaL0rfJvq9mIXOG9K91gn1V8b///isLs1FekhahlQJFK9u6E1YS0pNQdF2z06rmnfcunccP7ZrIuJi4CIn8RxTwqJdQWgol79qymAipx8b9ugdHvvrei9s2YkJ6FRAhxEUnd48crb5ZanXfM9JHjmZyjhI5vUpKMkVk7W5d5t7aoe/j3LYN0gfxamvqV5XTSRqd5mj9NqdVEtVVov7wtiy5c+fGjbv30W7pGnj6v2hcUY6sAAAgAElEQVT5bYncvXAOC1vWkydrVE2gdOm3gyz/+OOPWP/fkue8em3dunVl0wVblpeEtG4vPNJbjqu570ZddtiH9ApaQoijwmAoXqRJC1D5ES0SeveOTOeg6o2mUgs1h41D0Xfezt+x5jlUNIyKh1FvtdgIib7JqZDZt99+a436t+6hbRuRmy0H9VEk9OkLF9F6/gpZj9xSMRESHflTMbYSJUq8pYKisa2ppEBjo5UVdeh9VegZR45Ynhlg6btpud5ESOTKoMKCiSlMSK+jW1YIcTBrqSA0+fQr0PG8VrmweztWf9BdbiHog2Jtx9k3x2EiJNqmxHbaQ5Ocmi1S0J4eQlHGRG6xOXr10K+HjmrVquHg0WNoPmcR0ue3vHaRiZAo92z37t2xEhJh0L37i5bm5gqFIzRt2lSerK1YsUKuNk1C7ai0bqnNHYc119EKnwiJEm3f33PS6r6A5j6bCekNpIQQKp2EBXXtK2OFtAo1Z/zr159QoecAlG7fHQYnJ60q5f0mQqLkR2qL/KZQigIFtFkbJ/OmPvowUdQutVKyVaHtz879B2SycsZClvedu3/pAn5o3xTR4WFxbtm2bt0qo63NFVoZUeyXqfUUrVyJkCgmjKRSpUpvrZrM1Z0U15Efsm/fvvj1118T9ZTN9C5MSG9btZcQYk7e2g1QffAIbbFCqooZpXPDwdlZRmUXqN9UtzlkIiTqOnru3LlYCYkSOi0RImLyw1CENhEZ6aX0CRLaqhHJ2XIvMgpv2H/4CJrP+xH+eS3vJksR978O6onbZ//WzalN4QHke3s1aHXkyJEy1Yfk888/lx94W5Vt27bJLSoRU2LFIb367kxIb8+ENEKIrQBK0wqpTIceVq9qqEb2yj4dkK1MedQePlHXdkoJ+ZCIPCwlJPJHUVcNaoRISaLkg6L4ExMhmTqY2OqHR/qQLl7Ce4tXwytTFouHSR1WqcjeHz/Oj/fYn3xBdPxvjtCKkppcZs78ooMMpe9QlDb9HwnhbMuVKCkDgFbaBjd3dF+3V365JqYwIb2NLrUCoUL/i93S+jg2+3y+Vf4IUju/aU3ZfZYSaGuP+ERXO64f8QHObFqLrFmzxOrUpk6k7733HmiLYK5QXlaDBg1eXk41fUzF3ijFgbZscUUvm/uMxLwuZ86cuPXwMbqt2WVVf3paFdL2mupLUVeTHj16vDVcihvq3bu3bKNtjpA/irZnZAs6raTTO0rLOXv2bJwHEuboTaprTF9sVCa4cv+hVlU0tWSsTEixo5VGUZRJqqr2pkL87X74FY6ulhXZUlUjZpYrAFevtDIym8ri6inU0nn37GnIlN4/VkKitAQK+aclt7kSW5Ce6VStXr16crWUPXt2c9Ul+XVaAyNpwKbk2jx58shyIrGdKlJ0dfXq1c1+PwrNoGRlWglRUi7ZhoRO8ipUqGC2nqS+kLbrn376qUzEfveL760uImjJuJmQ4kbLUwixEkBtz/QZ0WX1NhgczXdI7//qcxz8djYob639kjXWlaeNx5J3/zmL5T3awN/bK1ZCevV0xNwJsXHjxtcctrS9MFU7HDx4sM1Ha+tBSDf+PIrN4z8GBUlS/FZshEQfVIpcHz16tLnQvnUdnQiSo1jPIEurBxPHjRROQqeqd+/eTZR6SLE9lgkpfisWp60bgIKZi5aU7WDSZM5q1rJ1aecWoMkdWLEqms7UJxbo1aFSDSTqBOoCo2yVTRP8TTEV16JCW+aIg4ODPIKmIm+0XaN60hcuXJBpKZRNH1++nDn6E/MacrrShyfcxQ2dftpk9aOoR962KaPx5y/LZMAindzFJocPH5bOaAqvsPQkk1ZM5I8LCgqyepxJcSMlEdPpYJZipVBnzFR4Z8mW6I9lQkoY4spCiMkAyhEpFX23rUz9oNotcQnlRFG9YIpr6bB8vcUNAxIe0osrKNs/4vFD6euYPfvtbidEKlQAn9IgzBXyGVHS54kTJ16WKSGyo9VTfMXKzNWfWNeZyo9U+XAMCjV6V9NjqHPM7wvmwdfbCzdv3oxTF/npqHQuYWWuUGkXcmgT2du6mAIiK/UbgtLtumnOvzTnfZmQzEEJKKYoylBVVVu6pfVBzso1UG3IqDjzpQ59Pw8Hvv1SFmzTWsEwvuGtI8f2xt9k0B2dhsQm9KGh4mXmngq9qYOc2VT4zNY/QKYCbX13HIOTxlyzB1cuYfWgHrh/+aKMEaJYobiEctGoGgLVRkpIqKolBaumlAaeZHtX33SoMXScXOknhTAhmYcy4ZROUZSJqqp2oUqbGQoWRYF6TVC8Zbu3NGyfPh7kdC7UuDnqjEx4opo3hLevenDtCuY3rSE/MFRXmo7t3xTaTlCfdurXbo1Q2RJbbxxAlR2JkDZt2oQPDsfeEdXSd1/evTWuHz0sq3AmVH6FTjJpC0dpJdS80hS7Rc8kRzadTFIIBTnK06fXp+Gipe9j6fV01E+nqtRxpN74GXBwcbVUhVXXMyFZBptQFKW7qqozAcheQ+ly5UO9iZ++3JY9ufWfLBJP/cvf330Cjjqkn8Q3xBmlcsHJyUkWY4/Px0MfKktXOQmtDiyDLvGupmL8VGal3ICPQXmIegi1QPoquByyZMkiiaZKlSpmqY3Nn2TLcUZxvZSPjw9Cw8MR1LUfynSwLFXGLKDiuIgJyTr0BLVMAkBn4DICzztLdtQdNw03Th7Hga9mISoiAv33ntSlcWF8QzSVsaV0BDr1ia8k6tq1a0FRwlRdMa74JKr1Q9HaVKKV/E+2LrQaIf/RlGnT0PXXHaATUb3kh3ZNQXWnqCLnvHnz4qw5pdfzbEEPBWpSTXUqN5OhUFG0WUAHzUknTEjWY20AUEVRlPaqqlJy02ufhBwVqqDpp19b3HDS0uFQ/tWC5nXkdoCC2IoVKxavCnJ0U6Ae1dWmn6lWMn2DU0NDOk0jpysF/sVV8M3S8SX29dR+iAgjOkNWBI+ZCmdP/WqAR4SGYF5wOaT19JSEZMtBoXrhTEnF5OeiWKlms74DzeOkFCYk7WhTLH0tAJmEENQdQKaZN54+F7mq0n8nroQ9foi1w/qD0lSo/jVFBJtbIsRESDRCShdJKSRkQpTihOh0kWKkqPBdnhrBusd7/b5gLvZ+OUOePFJNctrCpVahJG06sSVHPSWXU0J4UgsTkr6IVxNCrAXgRqVGMhV5u56Ovo+D7MlGLbw3jB4ii7WdPHkyxXQK0YoFESqtDH1KlEX1QSPhmtZHq8q37qe6Vls+GYmLe14kmVLmfmoU2vpSmVrqhOLm54/3fvxVZhkktTAh6Yt4PiHEafJjNJ35DdLlNr8nvJZhPLx+FVsnj8KVg3uxcOFC2S3EHoSc9Ju3bUP57v1RpuPbeWd6YXB6/WpJSpFhz2Tysa0HNFrz3uRXpFI2EALvfrkQ2cskT1ldJiRrrBf3PeWEEPup3xpVCtCjwJu5w/tjyQLsm/upbOdN0dXUgSM1C0WUlypVGvmCG6De+E8T/VUPfvsFfv9+HhAVJaOzTfWNEv3BSfAACuwsXrw4nD08ZQKt1m7KWobMhKQFvbfvXfi8Lnf76oNHonirDvpqTkAb9aSnE7frRw/JwDs6UbPlyGot4Bw6dEgWirv3JER2U/XLmUeLOrPupT70uz+fAiJ+cvyTv65ixYpm3WvLF1E4CB0KPA2PkKvM0h26w8EpcUuMxIcHE5KOs0UI8RBCeElCatleR83mqbp8cC9+G9wLLo4OMnKYTstSm1y7dg3vv/++JNzgsdOQL7hRkr0ikf7u2VNxctVyFCxYUJYgKVeuXJI9X88HUeT+qlWrZPwWYVq2Uy+UatcVLmm89HyMxbqYkCyGLO4bqPxt2mwBskFAttLJM1H/Jgf3yEGy3AWdQFFMSWoRShImxyvFSFX5aKxFFTgpYJH65lE3mBsn/pCHAW+JoiBt1gC5ZclSonSs1R3CHj2UZV9Orl4uS7HQhzqhUAtbw59i0EaMGCFbhd+5cwfVh4xCwYbvJKmLIS5MmJD0my0uQohnOavURPDoqXBJo188jKVDXN69La4f/R2lSpWSKSXSWZnChQiF2ls3b9FCVvEM6tonwd5rlLn/7NED/NynI+78c8ZiBCimiboY+wbmei2xNPzJY+yd8ymOr/wRUFV58ta+fXtZgM2WhTCkwEcqKUMhE9S0tOGU2chdtbbu4RLW4sCEZC1yb9ynKMpkVVU/ovy2uuOm66TVOjUht29iZZ+OsqYPHVVT+yIqKZJSJTQ0VOaTtW7bFrmq1UalvkPiLVFLhHH92GHsnTMDd8+/XW/cUhwyFyuFoC69kaVEGTg4y4wheeJGVQGOLVuE6IhwWUeKAk5p1URlXGxJiIiuX78uA2ep7XpIaChoJU/ETisjWxImJJ2sIYSgmZ/bFgiJXolSHqjQ2O1zp9GzZ09Z9c9U11mnV04SNXRiSKu88RMmIG+t+pIYfANzx/nsexfP49jyRfhz1bLYt2VWjpocveRjkcGCIuZjo6o48N2XOPXbSjy6cV2uSMlB3LlzZ3h5Ja8vxvSatM2dP3++9LlR8jGNvWTrjihQv5lVjRCshM/s25iQzIYq/guFEE8cnJ096FunXPf3ddKqTc3NU39i/chBsld9ixYtQB0wUtJxNcX8UMcOSvIt3q4rCjVqjjQZXxTLj00uH9gty76QjyixpHDj5qj9RgWHK4f248LOLTi2YrFcHTVu3BjUb42+BJIrsZaIiDqbXLp0SfaCo61aYIWqyFm1Joo0aWkzW7Q37cSEpNPMJULySOfv0XDKl8hUpLhOWrWroaDJRW0aQo0Ilx8SalpYo0YN7YoTWQOlL1AJDKoEWXfcDOSqWjPeEhi3z5zCupEfgHL7ElOIYIo0bYWaH7/e2Tg85Aku7tmBA998jgdXL4O635LvjtpG9evXL8nScshJTSesW7ZskfFoVIbY3S8dgjr3Qe7qdeDm65dsJGmOXZiQzEEp4WuyUYR22mw53NovW5uscRxxDfXHDpS5fgoGRZErjrJly5qd85bw6+tzBfk6yNlKNYh27twlA/WoQYLMUYtH1Oho/PZhX5zftUWfgSSgxS9nbpmr6J01INYr9389C4cWzAM51U2neVRel061KL2Hcg3JAa519URNGWjlQ7jt2LFDFuojAiIhh7WiGFCmcw+U7570OWnWGoIJyVrkXrlPUZQPVVWd6BMQ6NBp5WYdNOqvIvLZU5z4eQmOLP4OoffuyNKrNIGpRXZyC32oyOlKHVKoPMrtu/eQs0oNVOg1ED7ZAxMcHvVRo/ggCl5MKinRuiOqDRoR5+OiIyOkw/uf7Zvw5M4thNy6CepEQ2RUokQJ9OnTB9Tkk/5N9azSpk0rcxDpBIxKyBBhmU7FiGTIsU+5ew8fPnxZ/ZNaKlFrb2qp9IKFBNJkyASPdOllmWVayTm4vHDCpxRhQtLBUoqiLFdVtblPQKCwVUKSr0ndaLdtxN/rV+PC7m0yvYTiUailT3K1N6LuuCaHK20zqDywf94CZrcxf/bwPnZ9Ngmn1q3SwZLmqyjStCWqDxmdYBNRWiFRjuHl3/ci8mkorh45iIfXrrz2IKpjTl8M1FeOqi4QOREpESGRL+jevXuSsCnfjMgnJCTk5f20EqLYqczFS8kwCMKPGpOmVGFC0sFyQojtAKpRE4BW3y3XQWPiqgi5fQtXD+/H0aXf48nVSzLamCoiEjklhdAHjXqbUa3uU6dOgWrwUCIyFefPU6MuPPzNL/P67/EjWDWgG8iHk5SSs1J11Bw2Dh7+Gcx+LK2a/jt5HI/++1d+Odw9fxbXjvwum0HQ78wRIh2/3HmRrVQ5UM9AIiTq0puhQJEEydEc/cl9DROSDhYwEVKFngNlwF5KkSc3b+Df439g/9efI/zuLbliKlCgAGbMmJEodX/o254qW9LW7MGDB7h9+zaijUY0mTEP6fLkh4efv8UVNumEa2XvpE/TyVOzLmp8NBbU9MFaoRVT2OPHiHj2lOrImKWGCMjR1R0uXl4JBoaapdDGLmJC0sEgJkJqveAnZCpsOydslrwapVWs6NEWURHhiI6KgvfzSPMxY8bI6oEkJkdsfM5Yk8+DHNMmBzV1Z6Wje0qIpf+jD5TB0RG+gXlQb9w0+OTIZckw/3+tqsIYHSUL0/3S/8UYk1J8/PxR46MxyFy+CgyJ3O8+Kd8ruZ/FhKTdAj5CiHUAgvruPApnj+RLGdH+KgBFOZ9Y+SMuHdgjncTUtCDs4X3kzZ0b1E6bMtzJ5/GmmKKB6QSP6jFTaVwSIiAq9JUmU2aZG5a1VBBKvdfZapyinj1D6M1/8ezeXZz5+UfcOHEU/92+pcerm63D0dEB/r6+cHZygYObO8oNmwBXv3Rw17Get9mDSWUXMiFpN2hNIcTXAHIkZg827cO0XAMREq1A/j3xB+iUjoR8HU/v35PEFRUWJo+2aaVCQoTj5E7bCW+4+/jJUx+DgyPS5cmHwIrVtNW7VlU8unIRV3duxvW9OxF2/+4LwhNGPHz0EPceJo0PiY7qOzStgmIFcmL/0fM4fuYaoqKN8MtfGLkaNUe6wsXg4OpmOdh8xwt7Mg6aEegphKDma96pjZBiQyY6KhKU8R4RGipzuIzRRqjGF4SkODhKvwYlpRIpaY2zefX5p374Fnf+PIYH518kyZYpkgNNa5WAo4MBG3b9ge9+2gGjqmo2ZkIKhvdqip6tasLH2wOXrt/B2Us3Me3bjbh9/wlcffzgm78QinZ7H07JXMYjofew1d8zIWm3zCghxHAATvZASNrhslzDoWlj8d+RAzBGRiKjvzfeb1cDQUUD4ZfWUyq7/ygEnYbOw9b9Jy1XbuYdtE37YVof1ChXCK4uTq/dde2/+9hz5Bwmfb1ergrdM2RC0NBxSBNH4KSZj7TLy5iQtJt9qhBiCE3EQTp1TdU+pNShgSKwj86ZIbdpdExeslAAZo9oA0/32IP9Og2dizU7jiIsPFI60LWKogi4ODuhQbUSmP7Re/D19ohX5aE/L2Hy1+tx/uotCAdHFGjVCTkbvmPxyaHWcafk+5mQtFtPEhJFFHf62TajtLW/YtJrMEZF4sLaX/D3kvnSuR5ULBBfjW2fYLrL/Ych6DN2Pv69dR+X/r2DB49CLSInDzcX5MjqDy8PV+TPmRmfDGoFNxfzS7oSGY6YuQpb9p8CDA4IqNUA+Vt1gJPHi9UcS/wIMCFpnyGSkAo3bYnawydq18YaJAIhN67j9ymj8fjaZVQrmw+fDWsFg0ExG5079x9jw+7jOHPxBoxGFeERkbh596EkqLCISOnfcnNxgo+XB9L7esHBgXLLgEz+aVG/agnkyJJOkw+M/Eqrtx1FyLMoBNRpgELtusEQU0vJ7JewwwuZkLQbXRJSreETZO4Qiw4IqCoOfzYR1/fukNuzbyZ0RMFcmTQpjoiMAq2eHoc+A/0sIODs7AAvDzek9fKAgwVkZ85AIqOisXz9IXyzYjcehoYjd+MWKNC2izm32vU1TEjazS8J6d051MuqgnZtrEFusX5tUQfkQxrUqQ7aNgqSp2kpTcIjorBw9T5JSpGqgmrT58IzS/aU9hpJOl4mJG1wE37TntdCGtRx+Qb45oy7kqG2x9jX3XtHDcKdv44jYzpvjHu/MYKK5UzRAAyZ+hM27T0JZ29f1PnqRxkewRI7AkxI2mYG9RqeSb3Yem05pCmvSdswUtfdq5q9KCDXom5pDO/ZAHTalZIlOtqIFgPm4vz1e8hZvxkKdUi8LrspGScae8q2dPKjn10IMQdAvfd3/wlHN47Q1WwSVcWqd2pKNa3ql5GElBpk+8HT6D9xKfyLlkSZwaPh6O6eGl5L93dgQtIGaeGYtJEgJiRtQJrufnz1ErYN6AoXJ0d0a1EZ3VtW0UexDWgp2mg0nNL6omjXvsgUVMkGRmR7Q2BC0maTICHEAgD5mJC0AWm6+/qe7fKEzdvTDUO61EGjGimzekJsaEz7dgMWrz2Egu91laduLG8jwISkbVZUFkIsBBDAhKQNSNPdt48fwb5xH8Hd1Rm921RD+yYpt/rhm4jsPHQW709cigJtuiBPMw4RiW3GMCFp+xxVF0IsBpCJCUkbkKa7o8PD8VvreqnOh0QvtGTt75i6YCsKtuuGnPWb6gNYKtPChKTNoLWFED8ASMeEpA3IV+82nbK1pFO2Xg00RUzrNyrtmpr2+QI3o5xQvOcH8CtUVLvCVKiBCUmbUesKIX4EkJYJSRuQr969oWsLhN2/J6OzR/dtjPw5M+qnPJk0RUUZUbzpGKQvUQZlPxybKupfJwaUTEjaUK0vhFgCIA0TkjYgX7376Z1b2NSjjewhN75/EzSsXkw35aFPw7Fx71/Yuv9vXLr+osibSTzdnFGrYkE0rFYMGdPp2wq7+6hFOHjiIrJWqYWS/T7U7X1SmyImJG0WbRhDSB5MSNqAfPVuSh3Z0KUFwh/el7WHFk7uYtUqiZJqQ5+FIyQ0DJ8t3IKNu0/izaIk9Czqi2ZquvjqOAKzpsPEgc2QPZOvHIc1+W5UNO7oqSsyBinSxRPBXy2x2TbW+lnQek1MSNZjR3c2EkIsBeDGhKQNyDfvfnTpPPaOHoyIkCcydWRw5zrImyPhlkNEMHfuh+DKjXu4fe8xps3fiHsPQmTZknT+/rL/HBHQ5s2bERUdLTu/9unTW/7+8qXLchjUlPHihQt49OiR/DfVQWrXuByK5suKYvmyysoA5khUVDROnL2OifPW4p8rt5G/RTvka9nBnFvt9homJG2mbxyzQmJC0objW3dHhobg9PJFuLTpN1kpMnf29GhZrwyqlMmLDH6vN1Kg1Azafh08fgFPwyJw5tJN7PvjH/kzEU2jJo2RJUtW2eKpQqWKcHd3f1lXiRoybt++XfamM8mdO3ewfds2XL92DefPX8CObdtki28KRWjbMAjpfD1RpXQemWsXl1C2/6otR/HL5j9w6vwN5GrwDgp37q0zSqlPHROSNpvyCkkbfvHe/ezuHZxevhDXd2+TzQWoflGBXJlk0OSrYlSNuHX3Cf65chMRkdHyVwE5cuC9du2QOXNmlCpTWnaDfVWIqEgyZMggO+dSe+vY5ObNm/jr5EmsX7sOGzdsQEREBFydHeU4aOVUuXRe1KtcGI6OL1ZNRI4bdp/Epr2ncOz0FTx+GoE8TVoib4t2sgkCS/wIMCFpmyFMSNrwS/DuqGdPZbeRPcMHmFX5sUevXmjTtg2cnJ2R1tsbDo6xZ9abCCkoKAiLFi1Crlzx94d78uQJ6M/UyZOx9rc1L8ft7uaMNO4uL0MTaMv4JDQMIU/D4eafAYXad0eGkkHcuy1BS7+4gAnJTKDiuIyd2trws+ju0Fv/4cyKxbj713GE3rklG1pmC8iOKVOnolTp0nCMg3xie4iJkHr16oWJEyfG2msutvsiIyNB27zsxUohnV86hN68AUCVTnGq+y0MBln8LV+r9ggMbmzR+/HFTEha5wAf+2tF0Mr75zetiUf/XkWLFi2wZAlFXlgmJkKaOnUqBg0aZHbwpYmQirfqgOqDR754qKpKgjRGRMhmkYoFxGjZqFP/1bxC0mZjDozUhp/VdxMhPbtzE9988w3atm1rsR4TIc2YMQMDBw40+/5YCcnsu/nChBBgQkoIofh/z6kj2vCz+m4ipMgHd7F7924UK2ZZ4OTjx49fbtGsJaSi77ZF9SGjoBjMCwGw+kXt7EYmJG0GrxGTXJuR45C0AWnp3URIUQ/v4fjx48iRI4dFt589exb58+eX91hLSDnKV0bNYeORJmNmi57NF8ePABOSthlSNab8SDYmJG1AWnq3iZBOnDiBgIAAi24/ePAgypd/UdbEWkJKmz0H6oychMzFSln0bL6YCSkx50AFIcT3AHIxISUmzG/rNm3ZiFwo4NES2blzJ6pXr66JkNzS+qDO6CkIrFjNkkfztQkgwCskbVOkpBDiOwBFmZC0AWnp3URI4fduY+XKlQgODrbodvI7Va1a1WpC8vT0RDQE6o6dhry1XtRuYtEHASYkbTjmF0J8BaASE5I2IC29mwjpyX/XMWDAANDRvSVy5MgRlClTxipCohSSrFmz4tbt26g3bjry1+VYI0uwT+haJqSEEIr/99mEEF8CaMCEpA1IS++e36wWHly9hNq1a2Pjxo0W3X7x4sWXkdmW+pCIkPLlywfSUXfcdBSo18SiZ/PF8SPAhKRthlCC1CwhRLseG/fDw89fmza+22wENoz5EH+v/QU1atSQmftCmD+Vw8LC4BbTssoaQsqbNy8uXbrEhGS2tcy/0Hwrmq/Tnq6kbMnpQoh+HZatg1+uvPb07sn6rvevXMSCd2rLrdcvv/yCTJkyWTQeLYGR9Kx79+4xIVmEuHkXMyGZh1N8V00VQgxpMXcxspb+fwkL7WpZQ0IIfFo6twxwnDx5Mrp165bQ5a/9Xgsh0eqKCq/Rli1/cCOLnssX85YtseeAJKQGn8xC3tr1E/tZrP8VBNYNH4gzm9bIXDQiJYMFUdNaCImSa53c3BE8ZipyV6/DNtERAV4haQdTElKlvkNQpiP3bNcOp/kaQu7cwld1KyB9+vT48ccfX8YWJaShYMGCOH36tLysdevW+Oyzz+Dvb57/z5TL5uGfHsGjpiB7UMWEHse/twABJiQLwIrjUklI+es2Qr3xn2rXxhrMRiDy2TOs7NsRN078gVmzZoFKiTg4OMR5P9UzokTcdevWybrWDs4uiHz2VPqgGjdubJZj/NatW8iYMSPS5yuAWsM/Qfr8hcweL1+YMAJMSAljlNAVkpD8cuVBh2XrE7qWf68zAjf+PIrVH/TAs4cPsHTpUrRs2TLWJ9y4cQPDhg3DsmXLQKuc7GUrIEuJsjj43ZdwcXTAihUrULdu3XhHRzlw7du3x+HDh+X2vMZHY+HqFXcZW51f1S7UMSFpN7MkJAdnZ/Tfd0q7NtZgEQJhjx9h75wZ+KZPbsMAACAASURBVPOXZfD18cHIkSPRr1+/13RQnNL8+fPx888/y6qTeWrURbke78PR2QXbpo7F5f27ZInbsWPHylWWyb9kUkLF16jM7cyZM0FpJ24+vqj6wXB2aFtkKfMuZkIyD6f4rpKERBcMOnJeuzbWYDECj25cx8YxH+L60UOgtI6KFSvC19dX1r+mbRr5iy5fftFRpHz3fijcpBXIB0RCwZUbRg3Bf38dR5o0aVCrVi15YkfxTeQknz17NtavXy91XLt2TW71ag4bh/zBjeHo6mrxWPmG+BFgQtI+Q8YJIYYBcGBC0g6mtRoiQkPwc79OuPHnMamCVjm0GqI/JP55C6D6h6ORoUDht4rth4c8wZ7ZU3Hi56XSj+Th4QEXFxd5HxEaBVJKnQ4O6PrbTrj7+MmfWfRHgAlJO6aDhRBjqTcbE5J2MLVqCLl1ExvHfYQHVy9LcsldPRgVeg0EbakTkkf/XsO6ER/gyc0bIIKLiogAZfW7+fqhbKeeyFW1FhQDE1FCOGr5PROSFvRe3NtNCDEZgA8TknYwbUFD6N07+GfnFjy8dhllOnSHm4+fLQzLLsbAhKTdzNR5hBJsszIhaQeTNdg3AkxI2u1fKKaddqEBB0/D4BB7HzDtj2ENjEDqR4AJSbuN3YUQVP+iYvd1e+CZPqN2jayBEbBTBJiQdDC8EGI7gGptFvyEjIWL66CRVTAC9okAE5IOdjcRUr3xM7iCoA54sgr7RYAJSQfbmwjptW6mOuhlFYyAvSHAhKSDxU2ElKlwcbRe8JMOGlkFI2CfCDAh6WB3EyH5BOREp5WbdNDIKhgB+0SACUkHuwsh1gCo7xMQKDqt3KyDRlbBCNgnAkxIOthdUZSvVVXt4hMQqDAh6QAoq7BbBJiQdDC9oigjVFUd7RMQ6MCEpAOgrMJuEWBC0sH0BoOhqdFoXOoTEOjMhKQDoKzCbhFgQtLH9NmFEH97Z83u1u6HX+Hk7qGPVtbCCNgZAkxIOhlcCPEkTcbMHu/OWYi0WQN00spqGAH7QoAJSSd7EyG5+6bzqP/JTGQtWVYnrayGEbAvBJiQdLI3EZKTu4dHpb6DUaz5ezppZTWMgH0hwISkk72JkISieBRu0hK1Ph6vk1ZWwwjYFwJMSDrZmwgJgEeBek1ki2UWRoARsBwBJiTLMYv1DjplA5CfCUknQFmNXSLAhKST2YUQKwG8w4SkE6Csxi4RYELSz+wDhRCfMiHpByhrsj8EmJD0s3kBIcSpPDXroe7YqbJvPAsjwAhYhgATkmV4xXf18/ZswhhQvjKCR0+Bu286/TSzJkbAThBgQtLR0EIINVOR4qg9YhJ8A3PpqJlVMQL2gQATko52JkLyzpodtYaNR7Yy5XXUzKoYAftAgAlJRzsTITm5uaPGh2NQoEFTHTWzKkbAPhBgQtLRzkRIEALVB49E8ZbtddTMqhgB+0CACUlHOwshwgA4S0Jq1UFHzayKEbAPBJiQdLSzEOIygOxMSDqCyqrsCgEmJB3NLYQ4CKAsE5KOoLIqu0KACUlHcyuKskJV1eZMSDqCyqrsCgEmJB3NrSjKWFVVRzEh6Qgqq7IrBJiQ9DV3CyHE8ioDhqJkm84QiqKvdtbGCKRyBJiQ9DVwUSHE8aCufVG2Uy84ODvrq521MQKpHAEmJH0NnE8IcbpE646o0HMAdx/RF1vWZgcIMCHpa2RJSIUavYsq/YfCxctbX+2sjRFI5QgwIelrYElIuarVlukjHun89dXO2hiBVI4AE5K+BpaElLloSdQdNw1embPpq521MQKpHAEmJH0NLAkpbbYcaDx9DnwDc+urnbUxAqkcASYkfQ0sCcnVOy3e/eJ7+OcrqK921sYIpHIEmJD0NbAkJIODI1p+sxQZCxfTVztrYwRSOQJMSPoaWBISqWw9fwUyFSmhr3bWxgikcgSYkPQ1MBOSvniyNjtDgAlJX4PnEUL8STWReIWkL7CszT4QYELS1865hBCHAKRlQtIXWNZmHwgwIelr5xxCiL0AMjEh6Qssa7MPBJiQ9LVzgBBiB4AAJiR9gWVt9oEAE5L1djZhR3+bfs4mhNgIIA8TkvXA8p32iwATknm2J5zSAKBcELeYWzIqilIaQG5VVdMDoN7ZdF1+AB5MSOYBy1cxAq8iwIQU/3xIC6AuAB9FUfKqqkrN1jLHdosQgKIoMBqNUFWOQ+KPGSNgDQJMSLGjlk1RlG6qqlLuR3UAXqbL8gVmQvWggiicNxsEsVCM0E9PQsMwZ+kWXLx6iwMjrZmNfI/dI8CE9MYUEEL8GrPtyhqzDUODaiXwQaf6cHdzhoerC3zTesDT3fWtyXPzzkO0G/Il9h87x4Rk9x8tBsAaBJiQXqDmoCjKR6qqDgfgalAUpPF0w8zh7dG0VmnQv82Rm3cfosOHc7D3j7NMSOYAxtcwAm8uCOwcEQOAKkKI9wE0dnAwoEyRnGhWuwx6ta5lMTS37j5Cx6FzsfvwaSYki9HjGxiB/x9X2ysWg4QQowF4liueB0HFcmNc/+ZQXvENWQLMrXuP0GnoPOw69DcTkiXA8bWMwCu+WHsFY5IQ4iMHg0HUr1YcI3s3Q94cmaAo1u9imZDsdSrxe+uFgPWfPr1GkDx6JgghBhkUxaXTO1Uxsk8z+KX11DwS2rJ1+Ggu9hzhLZtmMFmBXSJgj4TUUAgxl+KJqgUVxNqvPtTN8HTK9t6QL3GAT9l0w5QV2RcC9kZIns+DF8eoqvpB0XzZsX/5OF2tff3mPTTuNR1nLt5gH5KuyLIye0HA3giprBBit6ODwWn/ivEokDPWoGurbX/lxl3U7TIJ9DenjlgNI99oxwjYEyHRuw4UQszo0rwaJgxoiTQebwc3apkLRETBnSfh6n9MSFpw5HvtFwF7IiQHIcRVABm/mdAdbRpW0N3ql/+9gzqdP8H1m/d5haQ7uqzQHhCwJ0JyFEJEeHm44qvx3dCwesmX9o2KikZEZBRcXZxey0+zdAJcuHoL5VuOQsjTMCYkS8Hj6xmBV+r42AMYkpBKFMyBL0Z1Ajm1SR6HPMWUb9Zg7pIt2LdsLPJr8Cudu/QfijcZKvWyD8kephS/o94I2NMKibZsF6im0eAuDfFR90byeH7dzmP4buUOqKqKnYtHgQjLWtl39Cxqd/qECclaAPk+u0fAngiJ3rWHEGJOBj9vUbZoLvx59iouXb8NHy8P9GhVEwM71YO7q7PFkyL0WTi+WLwJm/f9iYPH/2FCshhBvoEReIGAPRESvS8dq30ohBhBGf70H0HF8uDL0Z2QPZOf9CFZIuS8njh3Ffb+cQb/3XmIZ2ERL2/nLZslSPK1jIB9EpJ8a0VRFqmq2q5n65qYMbSdxXMhPCIKO3//G836zjDd+wxAJIBTAMpBCLT+bjl3rrUYWb7B3hGwtxWSiZAWqKrawd3NRdw+8JVFc+Dv89cxa9FG/PDrHrrvPoA/VVUdC2AXgLzUStvV2wfvfrEA/vmo4CQLI8AImIuAXRISgFZCiC+dnRx9Fk7pjYbVSySIF2Xyb97zJ2Yv3ohT56/T9defO8LHPCehpc+3gU9jFMhW2uly5UWDybPhExCYoF6+gBFgBP6PgL0SEoUAnKBStYVyZ8XcsV3iPF2jYMdPF6zDpet3cOTkBTwOeUYnclOfb802Adj+xmSShJSjQhXU+ngCPNNn5LnGCDACFiBgr4REEFEPtSsOBgW+aT1RIGcW5M2REU5ODrj63z1QTFFYeCQiIiOlwzo62kj3HFZV9WMABwCExoKzJKSCDd9Blf5D4epNTUtYGAFGwFwE7JmQCKPAmJWSRxyAkaOatmOPDAZD56ioqG0JACsJqVTbLijf4304urmbawe+jhFgBOzw2D82oxcWQkyJaQTpAyAcwD0AqhDigNFonEYdjsycLZKQKvT+AKXbd4PBwdHM2/gyRoARIATsfYX06iwgMsoZQz5niZCsmCJU3uRgtUEjUKJ1Rytu51sYAftGgAlJX/t3EUJ8W33wSBRv1UFfzayNEbADBJiQdDSyoihfqqramwlJR1BZlV0hwISko7mFEBQGUI0JSUdQWZVdIcCEpKO5hRDnAORmQtIRVFZlVwgwIelobiEExSa5VR8yCsVbttdRM6tiBOwDASYkHe38vAuu6ujmhhofjkHBBs101MyqGAH7QIAJSUc7EyF5ZcqCmsPGI6BcJR01sypGwD4QYELS0c5ESBkKFEHtERORLk9+HTWzKkbAPhBgQtLRzkRI2cqUR/CoKfDMwIm1OkLLquwEASYkHQ1NhJSrai0Ej5kKZw9PHTWzKkbAPhBgQtLPzv5CiFv5gxuh7rjpEIqin2bWxAjYCQJMSPoZuoEQYk2Bek0kIbEwAoyA5QgwIVmOWax3KIryiaqqw5iQdAKU1dglAkxIOpldCLEaQGMmJJ0AZTV2iQATkk5mF0IcA1CMCUknQFmNXSLAhKST2YUQdwD4MSHpBCirsUsEmJB0MrsQ4oni4OBRvEU7VP1guE5aWQ0jYF8IMCHpZG8iJCd3D49KfYegWPO2OmllNYyAfSHAhKSTvYmQ3Hz8POjIPyCook5aWQ0jYF8IMCHpZG8iJM/0GT3emT0fvoG5ddLKahgB+0KACUknexMheWfJ5tHm+5WgVtosjAAjYDkCTEiWYxbbHd5CiOs+AYHuHX/aBCEYVn1gZS32hgB/cvSxeAUhxFafgECXTis366ORtTACdogAE5IORlcUpaeqqp/7BAQ6MiHpACirsFsEmJB0ML2iKFNVVf3AJyDQwISkA6Cswm4RYELSwfSKoixSVbWtT0CgwoSkA6Cswm4RYELSwfRCiPUAgn0CAgUTkg6Asgq7RYAJSQfTmxpEZihUFG2//1kHjayCEbBPBJiQdLC7iZAKNW6OOiMn6aCRVTAC9okAE5IOdjcREiXVlmzTSQeNrIIRsE8EmJB0sLuJkJrO+haBFarqoJFVMAL2iQATkg52NxFSuyVr4M/92HRAlFXYKwJMSDpY3kRI3dfvg6d/eh00sgpGwD4RYELSbncHShsBUKX/vlNwcHbWrpE1MAJ2igATknbDUz+23wCUHXTkvHZtrIERsGMEmJC0G7+wEGIJgEJMSNrBZA32jQATknb71xRCfA0gBxOSdjBZg30jwISk3f5thRCfAvBnQtIOJmuwbwSYkLTbv4cQYjIAbyYk7WCyBvtGgAlJu/0HCiHGAfBgQtIOJmuwbwSYkLTbf5gQYhQAFyYk7WCyBvtGgAlJu/3HCCE+BuDIhKQdTNZg3wgwIWm3/2QhxIcABBOSdjBZg30jwISk3f5ThRBDDM7OGLDvlHZtrIERsGMEmJC0G18SklfmrOj66w7t2lgDI2DHCDAhaTe+JKT0+QvhvcWrtWtjDYyAHSPAhKTd+JKQspQog5ZfUwYJCyPACFiLABOStcj9/z5JSFSYjQq0sTACjID1CDAhWY+d6U5JSHlr1kODyZ9r18YaGAE7RoAJSbvxJSEVavQu6oyiDBIWRoARsBYBJiRrkXtjy1a8VXtUH0wB2yyMACNgLQJMSNYi9wYhle7QA5X7DdGujTUwAnaMABOSduPLLVuZTr1Qqc8g7dpYAyNgxwgwIWk3viSk0u27ofL7H2nXxhoYATtGgAlJu/ElIZVo3RHVBo3Qro01MAJ2jAATknbjS0Iq0rQlag2fqF0ba2AE7BgBJiTtxpeElC+4IepP+Ey7NtbACNgxAkxI2o0fE6ldBU1nfaddG2tgBOwYASYk7caXhJShYBG0XfiLdm2sgRGwYwSYkLQbXxJSmvQZ0W3dHu3aWAMjYMcIMCFpN74kJMXggIG/n9GujTUwAnaMABOSduNLQiI1XMJWO5iswb4RYELSbv+xMUX+HZiQtIPJGuwbASYk7fb/UAgxBoArE5J2MFmDfSPAhKTd/r2FEJ8A8GJC0g4ma7BvBJiQtNu/rRDiUwD+TEjawWQN9o0AE5J2+1cVQlDt2pxMSNrBZA32jQATknb7BwghfgZQ4oND5yAURbtG1sAI2CkCTEjaDe8khNgCoHKvzb/DzcdXu0bWwAjYKQJMSDoYXgixHUC1Nt//jIyFiuqgkVUwAvaJABOSDnY3EVKt4RNQpGkrHTSyCkbAPhFgQtLB7iZCyh/cEPW4BIkOiLIKe0WACUkHywshtgKo4RMQiE4rN+ugkVUwAvaJABOSDnZXFGWZqqotfAICBROSDoCyCrtFgAlJB9MrijJaVdURPgGBDkxIOgDKKuwWASYkfUxfkY7+fbIHunT8aSPHIumDKWuxQwSYkHQyuhDiSZqMmT1azPsBXpmz6qSV1TAC9oUAE5JO9iZCcvHy9qg1bDzy1Kyrk1ZWwwjYFwJMSDrZmwhJMRg8ijVvi2qDR+mkldUwAvaFABOSTvYWQlD92rwF6jVB3XHTddLKahgB+0KACUkneyuK8pmqqgOYkHQClNXYJQJMSPqZPZ0Q4nbOKjUQPHoqXNJ46aeZNTECdoIAE5KOhhZCqD4BOVHr4/HIUqKMjppZFSNgHwgwIeloZyFEpGIwOFQfMgpF322ro2ZWxQjYBwJMSDraWQhxHEDR6oNHonirDjpqZlWMgH0gwISkr53bCyEWluvWD2U79YTByVlf7ayNEUjlCDAh6WvgfEKI05mLlUTdsdPglTmbvtpZGyOQyhFgQtLXwHmEECcBOLWevwKZipTQVztrYwRSOQJMSPoaOKMQ4icAFSinLWupIH21szZGIJUjwISkr4EdAfQTQswo06kXKvYeCCG4C4m+ELO21IwAE5L+1m0nhFjk5O6BPtuOQHFw0P8JrJERSKUIMCHpb9g6QogFADL2338KDnzSpj/CrDHVIsCEpL9pvRRF+UJV1fdqfjQWRZtzgKT+ELPG1IoAE1IiWDYm0ba/i0ca0Wfn0UR4AqtkBFInAkxIiWBXg8HQ3mg0Ug2SdL23HYGrl3ciPIVVMgKpDwEmpMSxqZsQYgeAMsVbtgfltrEwAoxAwggwISWMkVVXmJpHpsudD+2WrIEQDLVVQPJNdoUAf0oSydwODg7B0dHRaz3TZzQ0mDSLo7YTCWdWm7oQYEJKRHsKIUKForgVfacNanw0JhGfxKoZgdSBABNS4tpxlBBibEC5Sqg9fCI8M2RK3KexdkYghSPAhJS4BiTndigFR9b8eDwKNmiWuE9j7YxACkeACSmRDUgdbQHULNe1L8p06gkHZ5dEfiKrZwRSLgJMSIlvu6JCiKMGJyelzYKV8M9bIPGfyE9gBFIoAkxIiW+4zFRFEkCN8j36g6pJsjACjEDsCDAhJf7MoPojvYQQXzh7eKLvzmOJ/0R+AiOQQhFgQkoaw1Fp268AVC7UuDnqjJyUNE/lpzACKQwBJqSkM9gsIUQfoSiGfrtOwNHVNemezE9iBFIAArtnTQETUtIZKq8Q4jcAefLWqo8Gn8wEOJ0k6dDnJ9k0AvcvX8Cyrq2YkJLYShOeN5Mc7pkho2y3na10uSR+PD+OEbA9BKIjI7Fp7Ic4s3kdE1ISmyft823bHSGEgXxJ1QePgoMLxyUlsQ34cTaGwJnNa7Fj+ng8vX+PCSkZbFNKCHHY0dUNdUZPRt6a9ZJhCPxIRsA2EHh47Qo2fzIc1w4flANiH1LS20URQpwAUChb2QqyoaSHn3/Sj4KfyAgkMwKq0Ygzm9Zg/chBNJIoVVWLMSElj1EKCyE2A8hQc9g4UDUAFkbA3hC4fvQwlvdoA6gqvfrPqqp2ZkJKnlngAWCkEGKwYjAoLb5egsxFSybPSPipjEAyIBARGoKlnVvg7oVz9PQjqqp2AfAnE1IyGCPmkdmFEN9RSkm6PPnR9vufYXBySr7R8JMZgSREYMPoIfh73Sp64kNVVYc/bxtGgcPRTEhJaIRYHlVRCLEMQmTOVaUmGk+fm7yj4aczAkmAwK6Zk3Bs+SLQcT+AraqqNgLwjP7BhJQEBojvEYqifEvLVYOTM8p06I6grn2hGAzJPCp+PCOgPwKqasQ/2zdhx/QJCLlzix5wQVXVPACMpqcxIemPu8UahRCbANT2CQiUpW6zlgyCUCgnl4URSD0IPLh2Gdsmj8aV3/fRS91SVbUagNOvviETkm3Y21UI8QuA4OwxoQDuHApgG5bhUeiCQHREBDaOoWjstaQvXAgxwGg0zntTOROSLnBrVkJ2KC+EmE+5bllLlUWLeT9qVsoKGAFbQeCX/l1wad8uORxVVT8BMMHkN+IVkq1Y6fVxOMTUTZoMwM03R050/Il2ciyMQMpGYEXPdrh25IB8CSHEPKPRSJGQT2N7K14h2ZitFUX5XFXVngAcs5UpL0/enNzcbWyUPBxGIGEEIsOeYcvEETiz8TdaFVH041pVVVsACIvrbiakhHFN8isURflKVdXuQjEgf3BDVOk/FG6+fkk+Dn4gI2AtAuFPHmPfvJk4sXIJjNFRpIaO91sBuBefTiYkaxFP3PvILtOEEIMUgwPyBTdEjQ9Hw8mdArxZGAHbRoBy1LZNGY2Tq38ykdFqVVX7ALiR0MiZkBJCKPl+TyUlh1P9JFop0enbO7PJ583CCNg2AqsHdsfFfTtBxESiqmp9AOvNGTUTkjkoJd81ngDG0REpDSFdrrxov2xd8o2Gn/y/9q4FPufq/7/PeTYbZjPG3OdSGKn2s6LcChWFLhIq1T93KUrSRcilH5WIkESR4pc//XSjSMLcZxozlzC3zRjL5rLNnu/5+Zw9z1y2sefZ9fv1Oa/XXrX2/Z7zOe/P6f0953M7jMB1ECAz0aL+ZMDOKCVyRUsUQnxsGAZ51q7bmJBuhFDR/93bYVN6BoCNQgI6jp8Kbz9/8lgUvXQswU2PAO2EziWcwMoJo7D/z5V6XdatWRnl/ctgW9QBpKTqFBEyai9TSlFpizM5gcYr2hzLqYQQIgrALSRuzXtaomnPAajcKITTTMyhP0tLeWDdaoR/MxuHt2S49h9tE4qvJvRHalo6ZixYgY/n/IzkczpVjdpSpdQgAIcdJHUVNkxIxX+pUI3brkKI96UUVQxD145BwC310ODhR3HXc32K/wxYQssisPGLT/HXkoU4e+I4bDaJ3k+1wUfDnrlq9z5n8WqMnb4E8QmZGyNy/78C4OC1wDAhFe+lEiSlfEsp1fmR+0ICSNnbd8dg/Mylehvs6V0Sddu2x0MjJ/DxrXjr0XLSpZBbf9pERH6/EIbdjvJly+DlHg+h/9MPwKdU1jrxa7ZEY/S0xdgQsc+JxSZHTBLtlDIbE1LxXSoBQog9AHwnv/O8R7dH7kWZ0t64mG7H/KVrMWrq/yMhMVkn4dZs2kIn5fpVrV58Z8OSWQaB2MgIXZQ/fk8UlN2OGpXL47PRvXBPSF2U8KSEg6yNwiIPHInH2x8vxE9/bHM+EKOUagHgqPM/MCEVv2XiT0c0KeWMOtUDMaxPJzzdsVkWKcN3HkDfEV8gev8x/beSZf3x4DvjULtFa0iP7BdF8ZsqS2QmBFLPJiNuRwSWDOqlXfoeNokqFf0RsXQ8vL1yV1zw6PFTGDJ+Ppb9uR32jLCAjY6d0hH6hQmp+KwI0kVdIcREKUS7J9s1sY0Y2Bm1quV8AcCFlDQ8PWQqVm/ahbSLOhoW9w95F9VCQlGxfsPiMzOWxNQIkDv/2PatiFyyANHL6K5TIKhqAFrd1QDTR73osrngUGwCBo+di9/CIp24fK+UehnAMSak4rFUqPjR/UKI4VUq+t/37KMtMHJg51xJdvZ8ivZiLFq+SW+JqVFJ3NBnXkTdNu353rdcocgP5YTAmdij2LtyGSK++xrJx2P1DiakQS0MH/A4Wt3dAN5enm6B9/eh4+j77ixs/Otv/T5VTjUMow8Tkltw5u9LUsrRFJ/RvHH9OkN7dUCL0GB4lcj9sYt2SlH7jmLgmC+xY0+GjZCOcFXuaIxWg4bBv0at/BWYe7spEDi4fg3WfzZZF+JPT83Ih329ZweQPTO4TtU8Y7A9OgZPDf4Ex46fpr4MIcSHTEh5hjVvHQghFgHoFNqodomlM4bC16ckpJsBj0lnL2DEJ4sw67vfnV8dnf/WpOcA3NWjd94E5bdvGgTsF9Mwr3tHJMfH4eKFjCoh5DmL+O+/EeDvixIufCyvBxodBX/8Yxueff1T2O3anpTGhFR0y8yXDNdSim6N6taQYQvfyzdJ9sbEoWPfD7QXzhElC99KVfDw2EkIuKUuvHwoI4UbI3AZAR1tfeokIhbOQ/iCL0EVHunDWNavNPp3fwCvPNcuW3d+fmA47Zvf8O7k75CadpGN2vkBqBt9+Esp3/f28uzzaJtQOfv9vm50cf1Xjp/8BxSQNv+HtTh8LEHH7Qsh0bDDE6jTsjXq3NdW/86NETixOwrxe3Zh05zpOHNMO7t0uzO4JkYP6oI299xWoCDRh7P38M+xImwHE1KBIp1950JKOdmrhMdLzz3W0jby5SdRtkypAhPjt3WRiIiO0ZGyzihvjxJeuLNrD5SvWQcNOz3pspekwITljgsVgRN7o3FgzSrs++NXnNizK8vYTe64FX27tUGXdk0hZcEeplas34Hn35jOhFSoK4CyY222XlBq6hMP3e390bBnUaGcb4GLQPEeqzZEYcmvmzFv6ZrM8Ur6+SOwQSOEdO2BWve24ptOClwTxWMAKp62cvxIJPy9B4mHDzrvRyPh6AbZcRlOLzGPTEcVy/vp6Os+XdsU6IeTBu8/8gsmpEJeIj5CiJMhDWp6r/xquNsuU3dkpiNbWtpFRB+IxQvDpmNfzPHMbjy8veHp5Y3O0+YikOOX3IHXFO/QcWzJ4F44d/IE6CrrjKqyGU0pFQqAMgPOOf4TfSnHXVqvL3l6eqDJ7XXw48w3cozEzg8AyN5ZsPuw/JDSOn3QVUdh3l6eIdHLJoK+PEXZNm7fhzbPZy1P4xNQEc0GvIbqoU1B/87XexellvI2NnnLkuOP40zsEayd+iHio3de2SFlutLdx3yBzgAADV5JREFUaG8A+PHKyxqvGbWDEOIrAOX8fEqJzYvHolql8m4JRgG85GyZ+FYPvNj5Pnh4ZL0QlQnJLWjdeulZIcSk1/7v4YAxg7tm28G+mDhE7jmMB5rdrt3/+d3oe7j3YCyi98di1cadmL3ojxyH8C7jh7tf6Kvz4wKDb+M8ufxWRkH1pxSSjseC7EOJhw4ibMYkEDFd0WKEEBsMw1gN4IvrENGV7zwuhHiX7Nw1qgSI+R8NROOGrsW20dr7Y2MUug6arPtdMOkVtL23URYUmJAKamFc3W9JKeVnPiW9nju+YWa2I55JPq9jiL5YtArrFryHkAY181UyKv0w8z+/Iyx8Dzb9tU8n6ToardZwIcRBwzAuSCl9lFJP0K0n9HdK3g1q0hwVbq2nAy1r3dsSNs/c5S3l6wS4s+siQG776OU/4OTe3Tgds19XbaRbP65o4Uop2gltyW052WsGvMdRvbTtHfWDMOXdFxB6W22XtBJ/6gze/GgBFi3biEZ1q2PNtyPheU3eJROSS5C6/TClhXw+vP/jt7zV77FsO6Fk2ccGTMQ/SeewZfH7qF+nituDXfvi6+PnY/OO/fgr+hDS7ZlERPeqDwNwEgAZlP4BQAlxxDb1pJT3OP5e1tlfmYqV9E7Jq4wvmvUbrFNUuBUdAlT242j4Jl2P6ELiKZw68DfOJ159qYcQ4jvDMGbQ8QwA5Wno8o1uNmKgOVLKVq3uCtYZ/tUru3Z8o+Ta3u98jjVbd6Nj68ZYOInKIl1uTEhuasbF13oKIWat+XakaNww61eFAsKadx+FXX8fxYShT6Nvt7bwzOZ87eKY2BZ1EANHf4mde484M6upC7oBYiiAOMdlfZctm1cPQLkrdG4sJYT4FkDrzD8LoY3gwmZDvbbtcf+Q4fDku+NcVY/bzx/euhErxr2D86dPwUhPhz0t9SoDNX1glFKvUclYxx1oOd6D5oYQDYQQv0gpgka81FmnkrhaSnn+D+swdMJ8/d6G/4zRibrOxoTkhkbceKUXEVJORzHawr7w5gwEVQnAzDG90SK0vhtDXH7l/IVUfLnkT7w9caFzR0S7n0hHRnVmirWLg3hIKXsppfpfuqKJbq6kLVymoYtKntzauh1Cujyj75DzLFkKJcuWg83TveRLF2Wz3OO0+0k9m4TU5GQow66z7bfMm4XTMQeunSvtammXexbATqXUwNxcN5RHwDoJIWZT4dKwhaNxZ3CQy9016zYSlMtG9tLvp72WSWpMSC5D6dYLORLSirBIfVQr61saYwY/pb0PeWm0G1rw03pMnqtvnaEEod+llN/Y7fa5een3mnfLSCmpLnKwUopW491Om5PzucD6t6H+Qx3gUyFQVxygBN9ytWpzdHgOSiACSoo7pmOD0lNSkHouGYc2rUPMhnWZ+WTXvLpTCEEfl9OGYdAOdjOAzPN4Puo6p676U1llAGW3LB6HBrdUc2nIVRujtMftXw1rYe6E/qhdPVC/z4TkEoxuP5wtIR2LP40OfT/QMUGdWjfG52N6w6d01vKfuR116e9b8cncZdiUUdLhJCXuGoZBgW43vKAvt2Nk81w9AA/Q0U5K2Vgp9SAt0iufo6vAK9YLRmBwI20kp+NdpeBGqBoSetPm1V1IPI24qL8Qt3O7JiB7+kUkxhxEbOQ2pJ13hgJdhTYdu1YrpcIcR226a2h9HvSW11dplzxCCDG0Y+t/iemjelJcgEt9Vm7WTztX6OhHuXJMSC7Bl6eHNSGRAY8Mec5GZWinzFuuf92yZByoQqS7beHP6/Hep4txJC4BSun4kp6XiIIWLx3XCqPRx40mQO5Br0s7sxZCCDreZbHO0zGuVLkA+FSspI90ZEsoXb4Cgpo21xdilgmsXBjyFsoYtPM5fegAjmxeD7L9pCRlFLqnch6UzHou4aS2A+XQ9iml6HZQIh8yRlOiGX1ccnyhUCZ1eZDyQoivS3mXaP9yj3Z4o3cnl4J9P5j1g16zr/Roh/cGddFBl7xDKhwNdiFCCqoS4Ldr2UQ94uG4UxgwaraOzSBF5rYgW3biUr5aj6HTQMXaqCmlKMqWbAo5GawLY9YU9UYeO8rgvVVKOUQp1Z2yZ7IbnEhJ2Dz0tU7iirwp30pVdZBmjbua6muf6AhY3BpFPCfs26PtPEfCN+FI+MbM+kFaH4ahC+HTD30trtPihBDTDcOYRoH1jiM3/bMwj2KuwuslhNhls8naY1/tqisD5NYhc/J0Emre/7LeWX394UuY8vVyJiRX0Xfzecrun6mU6rLrl48QVLUCZn23Cq++P08nLSZt+9KtbqmGzNqtu/FInwnO9w8rpSg1O9mtDgvnJV2qV0rZVylFBjM6oxJJUeg61RN3KciJjoBkPPerUk3vrHwCA/Vuq5R/eXj7lUVJ37Io4eMDm8eNjesKCkZaGuhGDdrJnE88jfOnEnD2ZLyuDUQ2nn9ij8CemuoOUlRYiLZHpBtNMGQDIg+m3W6nbfJV0YvuDFCE79QTQvwEoM6w3p3Ei0/ej2qVyt1QnORzKejU7wNsjtyPqoH+iE9IYkK6IWr59ICU8h2l1Nu1qlUotXz2W1j48waMnLJIe9Tod1db7IlE0M7opfdoR693QtuUUi+Qp8XVvorB8+StaymlpNACOq8RaXkopaigeA0AVJ4w/0PX83fipAMy/lBMF+10KKzCSTL0t91SyrD09PRwx+41f0cv+t5aCiFoZ9ewUd0agsqW3NekwXVz3yjp+9sfw9BvBAWM67afj2yFp8ggIcQyAQS3a3knyKBNaSJLPn0ND7W4wyUp1oXvwWcLVuDn1RFU3J++tmuVUq9TxLVLHRXvhykOilw3dQBQ8BYZUZ2NjoGVpJQ1lFJko6IfIi+yqub3mqajbyKABIejIN4wDCIb+v3KIEMinSSHnecQAPox867HndXRSggxBcDtVMXiyXZN8EzH5josILtYpUlf/YIfVoVjc4YTZrlSakp+K8+dSdxM7zQRQpCBMrP9OudtNG9MjqobN8Mw8Ou6SB1URjc3UH0jpRQZpaYDyBKgcuMeTfsErVsqIkUERERFP/Q7kVh+r2kiHTqjUR6G84eOX/Tvuu4qt6sQCJZSvqmUeo7MEeSoCQzww7+HdNcu/qSz5zHvv2vxy+oIhEcd1HZPIcR8wzAoV+5wfiuPdXNjBMg9Pp1uo6X/ocizkLiVYsxu3No+PxZbdx7IzENTSlH8T0Qx8rrceBL8xM2AABnsHhRCUO6c5hha5zYpQXa69HQ70jNqaKcLIWYahvGqc7fJhFR0y6MreVSorIO/X2ms/XYUalQO0PejOxvtgBISk7A+Yh8Gjp6DxDM6PoW+zLuVUv0cwXBFNwMemRG4PgKVHAm59zqcF+TAoPWbSp45wzCevvZjyoRUdEuKsB/giHb1pbSRQc+3B5GTzWZDSkoaUi+m48dV4VgZtgNGhrv4xCVDL5EYlQy4XGGt6ObAIzMCuUUgyMPDo2p6evpBRx5ltu8xIeUWzoJ5jgIIuwkhyFWmt0ZUnc/TJnE+5Sp76EWlFBWSodIRdG0SN0bAkggwIRW9WkkHtKXtTuVCrxCHDtlbpJSz7HZ7lMOdTx4fboyAZRFgQio+qqUd0rXX1RIpkVu/KCOuiw9CLInlEWBCsryKeYKMgHkQYEIyj65YUkbA8ggwIVlexTxBRsA8CDAhmUdXLCkjYHkEmJAsr2KeICNgHgSYkMyjK5aUEbA8AkxIllcxT5ARMA8CTEjm0RVLyghYHgEmJMurmCfICJgHASYk8+iKJWUELI8AE5LlVcwTZATMgwATknl0xZIyApZHgAnJ8irmCTIC5kGACck8umJJGQHLI8CEZHkV8wQZAfMgwIRkHl2xpIyA5RFgQrK8inmCjIB5EGBCMo+uWFJGwPIIMCFZXsU8QUbAPAgwIZlHVywpI2B5BJiQLK9iniAjYB4EmJDMoyuWlBGwPAJMSJZXMU+QETAPAkxI5tEVS8oIWB4BJiTLq5gnyAiYBwEmJPPoiiVlBCyPABOS5VXME2QEzIMAE5J5dMWSMgKWR4AJyfIq5gkyAuZBgAnJPLpiSRkByyPAhGR5FfMEGQHzIMCEZB5dsaSMgOURYEKyvIp5goyAeRBgQjKPrlhSRsDyCDAhWV7FPEFGwDwIMCGZR1csKSNgeQSYkCyvYp4gI2AeBJiQzKMrlpQRsDwCTEiWVzFPkBEwDwJMSObRFUvKCFgeASYky6uYJ8gImAcBJiTz6IolZQQsjwATkuVVzBNkBMyDABOSeXTFkjIClkeACcnyKuYJMgLmQYAJyTy6YkkZAcsjwIRkeRXzBBkB8yDAhGQeXbGkjIDlEWBCsryKeYKMgHkQYEIyj65YUkbA8ggwIVlexTxBRsA8CDAhmUdXLCkjYHkEmJAsr2KeICNgHgSYkMyjK5aUEbA8AkxIllcxT5ARMA8CTEjm0RVLyghYHgEmJMurmCfICJgHASYk8+iKJWUELI8AE5LlVcwTZATMgwATknl0xZIyApZHgAnJ8irmCTIC5kGACck8umJJGQHLI8CEZHkV8wQZAfMgwIRkHl2xpIyA5RH4H31pThQpivbAAAAAAElFTkSuQmCC;" vertex="1" parent="1">
                    <mxGeometry x="103.91999999999999" y="150" width="101.08" height="180" as="geometry"/>
                </mxCell>
                <mxCell id="21" value="" style="ellipse;whiteSpace=wrap;html=1;aspect=fixed;fontColor=#007FFF;fillColor=#74CDDD;strokeColor=#74cddd;" vertex="1" parent="1">
                    <mxGeometry x="342.6" y="160" width="50" height="50" as="geometry"/>
                </mxCell>
                <mxCell id="22" value="" style="ellipse;whiteSpace=wrap;html=1;aspect=fixed;fontColor=#007FFF;fillColor=#74CDDD;strokeColor=#74cddd;" vertex="1" parent="1">
                    <mxGeometry x="280" y="160" width="50" height="50" as="geometry"/>
                </mxCell>
                <mxCell id="32" style="edgeStyle=none;curved=1;html=1;entryX=0.5;entryY=0;entryDx=0;entryDy=0;dashed=1;strokeColor=#FF0000;fontColor=#007FFF;" edge="1" parent="1" source="23" target="7">
                    <mxGeometry relative="1" as="geometry">
                        <Array as="points">
                            <mxPoint x="220" y="320"/>
                        </Array>
                    </mxGeometry>
                </mxCell>
                <mxCell id="23" value="" style="ellipse;whiteSpace=wrap;html=1;aspect=fixed;fontColor=#007FFF;fillColor=#74CDDD;strokeColor=#74cddd;" vertex="1" parent="1">
                    <mxGeometry x="230" y="240" width="50" height="50" as="geometry"/>
                </mxCell>
                <mxCell id="24" value="" style="ellipse;whiteSpace=wrap;html=1;aspect=fixed;fontColor=#007FFF;fillColor=#74CDDD;strokeColor=#74cddd;" vertex="1" parent="1">
                    <mxGeometry x="400" y="160" width="50" height="50" as="geometry"/>
                </mxCell>
                <mxCell id="27" value="" style="ellipse;whiteSpace=wrap;html=1;aspect=fixed;fontColor=#007FFF;fillColor=#74CDDD;strokeColor=#74cddd;" vertex="1" parent="1">
                    <mxGeometry x="305.3" y="350" width="30" height="30" as="geometry"/>
                </mxCell>
                <mxCell id="28" value="" style="ellipse;whiteSpace=wrap;html=1;aspect=fixed;fontColor=#007FFF;fillColor=#74CDDD;strokeColor=#74cddd;" vertex="1" parent="1">
                    <mxGeometry x="397.3" y="354" width="30" height="30" as="geometry"/>
                </mxCell>
                <mxCell id="29" value="" style="ellipse;whiteSpace=wrap;html=1;aspect=fixed;fontColor=#007FFF;fillColor=#74CDDD;strokeColor=#74cddd;" vertex="1" parent="1">
                    <mxGeometry x="467.3" y="260" width="30" height="30" as="geometry"/>
                </mxCell>
                <mxCell id="30" value="" style="endArrow=none;dashed=1;html=1;fontColor=#007FFF;strokeColor=#FF0000;" edge="1" parent="1" source="10" target="29">
                    <mxGeometry width="50" height="50" relative="1" as="geometry">
                        <mxPoint x="390" y="320" as="sourcePoint"/>
                        <mxPoint x="440" y="270" as="targetPoint"/>
                        <Array as="points">
                            <mxPoint x="500" y="320"/>
                        </Array>
                    </mxGeometry>
                </mxCell>
                <mxCell id="31" value="" style="endArrow=classic;html=1;strokeColor=#FF0000;fontColor=#007FFF;exitX=0;exitY=0;exitDx=0;exitDy=0;curved=1;dashed=1;" edge="1" parent="1" source="29">
                    <mxGeometry width="50" height="50" relative="1" as="geometry">
                        <mxPoint x="434.69339828220177" y="289.3933982822018" as="sourcePoint"/>
                        <mxPoint x="483" y="185" as="targetPoint"/>
                        <Array as="points">
                            <mxPoint x="450" y="230"/>
                        </Array>
                    </mxGeometry>
                </mxCell>
            </root>
        </mxGraphModel>
    </diagram>
</mxfile>